<svg width="48" height="48" viewBox="0 0 48 48" fill="none" xmlns="http://www.w3.org/2000/svg">
  <path d="M34.6621 41.4754C32.5945 43.4807 30.337 43.1641 28.1638 42.2142C25.8641 41.2432 23.7543 41.201 21.328 42.2142C18.2898 43.5229 16.6863 43.143 14.8719 41.4754C4.57591 30.8578 6.09499 14.6888 17.7835 14.0977C20.6317 14.2455 22.615 15.6598 24.2817 15.7864C26.7713 15.2798 29.1555 13.8233 31.8138 14.0133C34.9997 14.2666 37.4049 15.5331 38.9873 17.8128C32.4046 21.7601 33.9659 30.4357 40 32.8632C38.7974 36.0294 37.2361 39.1746 34.641 41.4965L34.6621 41.4754ZM24.0708 13.9711C23.7543 9.26391 27.5731 5.37995 31.9615 5C32.5734 10.446 27.0245 14.4988 24.0708 13.9711Z" fill="black" />
</svg>
